Coordinates
version=1
nRows=14
nColumns=63
inDegrees=yes

Units are S.I. units (second, meters, Newtons, ...)
If the header above contains a line with 'inDegrees', this indicates whether rotational values are in degrees (yes) or radians (no).

endheader
time	pelvis_tilt	pelvis_list	pelvis_rotation	pelvis_tx	pelvis_ty	pelvis_tz	hip_flexion_r	hip_adduction_r	hip_rotation_r	knee_angle_r	knee_angle_r_beta	ankle_angle_r	subtalar_angle_r	mtp_angle_r	hip_flexion_l	hip_adduction_l	hip_rotation_l	knee_angle_l	knee_angle_l_beta	ankle_angle_l	subtalar_angle_l	mtp_angle_l	L5_S1_Flex_Ext	L5_S1_Lat_Bending	L5_S1_axial_rotation	L4_L5_Flex_Ext	L4_L5_Lat_Bending	L4_L5_axial_rotation	L3_L4_Flex_Ext	L3_L4_Lat_Bending	L3_L4_axial_rotation	L2_L3_Flex_Ext	L2_L3_Lat_Bending	L2_L3_axial_rotation	L1_L2_Flex_Ext	L1_L2_Lat_Bending	L1_L2_axial_rotation	L1_T12_Flex_Ext	L1_T12_Lat_Bending	L1_T12_axial_rotation	Abs_r3	Abs_r2	Abs_r1	Abs_t1	Abs_t2	neck_flexion	neck_bending	neck_rotation	arm_flex_r	arm_add_r	arm_rot_r	elbow_flex_r	pro_sup_r	wrist_flex_r	wrist_dev_r	arm_flex_l	arm_add_l	arm_rot_l	elbow_flex_l	pro_sup_l	wrist_flex_l	wrist_dev_l
0.000000	-1.158225	-2.266925	94.175407	0.149441	1.125644	0.422660	-0.077108	-2.899260	-11.880070	11.507897	0.200851	35.779098	15.226215	0.000000	3.838590	3.705709	9.568474	13.879527	0.242243	35.927921	-4.948303	0.000000	0.297535	-0.452012	0.016918	0.552553	-0.601176	0.017975	0.488821	-1.099022	0.017975	0.340053	-1.099022	0.014803	0.276291	-0.921743	0.013746	0.170012	-0.700167	0.012688	2.125265	-5.113250	0.094091	0.000000	0.000000	25.275153	1.241361	1.818887	58.893436	-10.390156	54.251101	48.297345	88.109055	-6.553573	-19.871998	67.561930	-9.139818	74.061143	46.173486	88.377181	-13.096385	4.150382
0.019608	-1.296371	-2.363572	93.739073	0.149749	1.126437	0.421837	0.434664	-3.114440	-11.246429	11.978473	0.209064	36.583997	15.313283	0.000000	3.574312	3.960979	10.363619	13.189421	0.230199	35.348048	-6.693292	0.000000	0.311159	-0.473004	0.113856	0.577854	-0.629095	0.120972	0.511203	-1.150062	0.120972	0.355624	-1.150062	0.099624	0.288942	-0.964550	0.092508	0.177796	-0.732683	0.085392	2.222579	-5.350715	0.633231	0.000000	0.000000	25.650517	0.760829	0.250762	59.122198	-9.817214	54.924490	46.529572	88.248561	-4.327979	-21.267614	67.217282	-8.457265	75.676001	44.466891	88.321242	-15.604367	0.740007
0.039216	-1.368353	-2.408906	93.482202	0.149762	1.127309	0.420964	0.879198	-3.235568	-10.669471	12.464299	0.217543	37.291502	15.206325	0.000000	3.316071	4.122833	10.971723	12.607788	0.220047	34.948609	-7.943699	0.000000	0.321933	-0.484091	0.183331	0.597862	-0.643841	0.194789	0.528904	-1.177019	0.194789	0.367937	-1.177019	0.160415	0.298947	-0.987159	0.148957	0.183952	-0.749857	0.137498	2.299535	-5.476136	1.019634	0.000000	0.000000	25.887268	0.334743	-1.003765	59.117274	-9.321030	55.032991	44.969285	88.083438	-1.906241	-22.063506	66.911266	-7.879083	77.090674	43.089698	88.283735	-17.640804	-2.119880
0.058824	-1.381859	-2.408533	93.384170	0.149515	1.128242	0.420056	1.260198	-3.273573	-10.147721	12.958588	0.226170	37.907653	14.931139	0.000000	3.064942	4.201332	11.407817	12.126180	0.211642	34.710947	-8.746614	0.000000	0.330141	-0.486368	0.227851	0.613104	-0.646869	0.242092	0.542388	-1.182555	0.242092	0.377318	-1.182555	0.199370	0.306569	-0.991801	0.185129	0.188642	-0.753384	0.170888	2.358163	-5.501889	1.267239	0.000000	0.000000	25.999438	-0.040902	-1.972273	58.918764	-8.899575	54.680364	43.609845	87.665712	0.632395	-22.341572	66.641407	-7.398175	78.316808	42.010650	88.262573	-19.249355	-4.475068
0.078431	-1.344579	-2.368063	93.424353	0.149044	1.129215	0.419129	1.581367	-3.239384	-9.679707	13.454551	0.234826	38.438488	14.513522	0.000000	2.822003	4.206537	11.686931	11.736150	0.204834	34.616406	-9.149130	0.000000	0.336067	-0.480928	0.249921	0.624110	-0.639634	0.265541	0.552124	-1.169328	0.265541	0.384091	-1.169328	0.218681	0.312072	-0.980708	0.203061	0.192029	-0.744957	0.187441	2.400493	-5.440352	1.389984	0.000000	0.000000	26.001057	-0.370113	-2.682340	58.566768	-8.550815	53.970372	42.444615	87.047412	3.208684	-22.183714	66.405227	-7.007446	79.366045	41.198492	88.255670	-20.473679	-6.371346
0.098039	-1.264201	-2.293102	93.582128	0.148383	1.130211	0.418195	1.846407	-3.143931	-9.263954	13.945401	0.243393	38.890046	13.979270	0.000000	2.588332	4.148509	11.824096	11.429251	0.199478	34.646328	-9.198335	0.000000	0.339996	-0.468865	0.252047	0.631406	-0.623591	0.267800	0.558579	-1.139999	0.267800	0.388581	-1.139999	0.220541	0.315720	-0.956110	0.204788	0.194273	-0.726272	0.189035	2.428554	-5.303898	1.401810	0.000000	0.000000	25.906158	-0.656896	-3.161544	58.101383	-8.272718	53.006776	41.466954	86.280565	5.743379	-21.671831	66.200253	-6.699800	80.250032	40.621968	88.260936	-21.357434	-7.854503
0.117647	-1.148413	-2.189259	93.836869	0.147568	1.131211	0.417269	2.059023	-2.998143	-8.898991	14.424349	0.251752	39.268368	13.354180	0.000000	2.365006	4.037308	11.834344	11.197036	0.195425	34.782057	-8.941320	0.000000	0.342211	-0.451274	0.236736	0.635520	-0.600195	0.251532	0.562218	-1.097228	0.251532	0.391113	-1.097228	0.207144	0.317777	-0.920239	0.192348	0.195539	-0.699024	0.177552	2.444378	-5.104906	1.316653	0.000000	0.000000	25.728773	-0.905256	-3.437463	57.562710	-8.063254	51.893336	40.670225	85.417199	8.157236	-20.887823	66.024007	-6.468143	80.980411	40.249824	88.276287	-21.944280	-8.970329
0.137255	-1.004904	-2.062141	94.167953	0.146635	1.132195	0.416365	2.222918	-2.812950	-8.583342	14.884608	0.259785	39.579491	12.664050	0.000000	2.153100	3.882996	11.732705	11.031056	0.192528	35.004936	-8.425177	0.000000	0.342997	-0.429249	0.206493	0.636980	-0.570901	0.219399	0.563510	-1.043676	0.219399	0.392011	-1.043676	0.180682	0.318507	-0.875324	0.167776	0.195989	-0.664906	0.154870	2.449995	-4.855749	1.148453	0.000000	0.000000	25.482931	-1.119200	-3.537675	56.990847	-7.920390	50.733813	40.047789	84.509342	10.371008	-19.913591	65.874014	-6.305380	81.568828	40.050803	88.299633	-22.277875	-9.764612
0.156863	-0.841363	-1.917356	94.554756	0.145618	1.133146	0.415498	2.341793	-2.599281	-8.315535	15.319389	0.267374	39.829456	11.934676	0.000000	1.953694	3.695634	11.534210	10.922865	0.190640	35.296307	-7.696995	0.000000	0.342639	-0.403883	0.163826	0.636314	-0.537164	0.174065	0.562921	-0.982001	0.174065	0.391602	-0.982001	0.143347	0.318174	-0.823598	0.133108	0.195784	-0.625615	0.122869	2.447433	-4.568805	0.911149	0.000000	0.000000	25.182665	-1.302733	-3.489759	56.425894	-7.842093	49.631970	39.593005	83.609021	12.305449	-18.831034	65.747798	-6.204414	82.026926	39.993651	88.328889	-22.401880	-10.283141
0.176471	-0.665477	-1.760511	94.976655	0.144552	1.134043	0.414682	2.419354	-2.368065	-8.094096	15.721904	0.274399	40.024300	11.191855	0.000000	1.767863	3.485283	11.253889	10.864015	0.189613	35.637515	-6.803866	0.000000	0.341419	-0.376271	0.111239	0.634050	-0.500440	0.118192	0.560918	-0.914864	0.118192	0.390208	-0.914864	0.097334	0.317042	-0.767291	0.090382	0.195087	-0.582843	0.083429	2.438723	-4.256448	0.618680	0.000000	0.000000	24.842007	-1.459862	-3.321292	55.907949	-7.826333	48.691566	39.299237	82.768264	13.881313	-17.722053	65.642883	-6.158150	82.366350	40.047111	88.361966	-22.359951	-10.571706
0.196078	-0.484935	-1.597215	95.413025	0.143474	1.134869	0.413931	2.459303	-2.130233	-7.917552	16.085367	0.280743	40.170065	10.461385	0.000000	1.596686	3.262002	10.906775	10.846059	0.189299	36.009902	-5.792880	0.000000	0.339623	-0.347506	0.051240	0.630715	-0.462183	0.054443	0.557967	-0.844926	0.054443	0.388156	-0.844926	0.044835	0.315374	-0.708634	0.041633	0.194061	-0.538287	0.038430	2.425896	-3.931056	0.284983	0.000000	0.000000	24.474987	-1.594593	-3.059853	55.477112	-7.871078	48.016364	39.159844	82.039099	15.019355	-16.668548	65.556794	-6.159494	82.598744	40.179929	88.396778	-22.195750	-10.676096
0.215686	-0.299744	-1.435956	95.810921	0.142400	1.135567	0.413305	2.466370	-1.900945	-7.831284	16.390115	0.286061	40.301541	9.897846	0.000000	1.452545	3.031738	10.492138	10.859699	0.189537	36.432392	-4.717298	0.000000	0.339052	-0.316870	-0.014511	0.629654	-0.421436	-0.015418	0.557029	-0.770437	-0.015418	0.387503	-0.770437	-0.012697	0.314844	-0.646160	-0.011790	0.193734	-0.490831	-0.010883	2.421815	-3.584491	-0.080706	0.000000	0.000000	24.112804	-1.765783	-2.803347	55.508601	-8.072839	48.629496	39.080879	81.917296	15.264789	-16.409881	65.311305	-6.238461	82.355734	40.398609	88.392046	-21.859561	-10.610867
0.235294	-0.134100	-1.289189	96.173576	0.141432	1.136117	0.412780	2.449801	-1.696047	-7.766848	16.637603	0.290381	40.382246	9.354850	0.000000	1.328413	2.818635	10.059024	10.900034	0.190241	36.798882	-3.672385	0.000000	0.338138	-0.288772	-0.083803	0.627955	-0.384067	-0.089040	0.555526	-0.702120	-0.089040	0.386458	-0.702120	-0.073327	0.313995	-0.588864	-0.068090	0.193212	-0.447308	-0.062852	2.415283	-3.266645	-0.466086	0.000000	0.000000	23.769351	-1.897648	-2.501707	55.675730	-8.322947	49.704868	39.295237	82.020219	14.535049	-16.351129	65.157188	-6.339649	82.154115	40.578919	88.404922	-21.571930	-10.458126
0.254902	-0.001467	-1.155048	96.469030	0.140643	1.136522	0.412368	2.407782	-1.522833	-7.666161	16.819853	0.293562	40.413875	8.798011	0.000000	1.227524	2.627730	9.485881	10.973700	0.191527	37.135523	-2.545699	0.000000	0.336398	-0.264548	-0.153027	0.624725	-0.351849	-0.162591	0.552668	-0.643223	-0.162591	0.384469	-0.643223	-0.133898	0.312379	-0.539467	-0.124334	0.192218	-0.409785	-0.114770	2.402857	-2.992623	-0.851089	0.000000	0.000000	23.448947	-2.017736	-2.147350	56.024789	-8.586237	51.303906	39.759962	82.304695	12.912437	-16.451285	65.090083	-6.488399	82.020923	40.727214	88.434204	-21.375229	-10.294844
